<?xml version="1.0" encoding="UTF-8" standalone="no"?>
<!-- Created with Inkscape (http://www.inkscape.org/) -->

<svg
   width="210mm"
   height="297mm"
   viewBox="0 0 210 297"
   version="1.1"
   id="svg4130"
   inkscape:version="1.2 (dc2aedaf03, 2022-05-15)"
   sodipodi:docname="lock-unlock.svg"
   xmlns:inkscape="http://www.inkscape.org/namespaces/inkscape"
   xmlns:sodipodi="http://sodipodi.sourceforge.net/DTD/sodipodi-0.dtd"
   xmlns="http://www.w3.org/2000/svg"
   xmlns:svg="http://www.w3.org/2000/svg">
  <sodipodi:namedview
     id="namedview4132"
     pagecolor="#ffffff"
     bordercolor="#000000"
     borderopacity="0.25"
     inkscape:showpageshadow="2"
     inkscape:pageopacity="0.0"
     inkscape:pagecheckerboard="0"
     inkscape:deskcolor="#d1d1d1"
     inkscape:document-units="mm"
     showgrid="false"
     inkscape:zoom="1.0255231"
     inkscape:cx="412.47242"
     inkscape:cy="509.49608"
     inkscape:window-width="1920"
     inkscape:window-height="1001"
     inkscape:window-x="-9"
     inkscape:window-y="-9"
     inkscape:window-maximized="1"
     inkscape:current-layer="layer1" />
  <defs
     id="defs4127" />
  <g
     inkscape:groupmode="layer"
     id="layer3"
     inkscape:label="background">
    <rect
       style="display:inline;fill:#ffe5cb;fill-opacity:1;stroke:#ffffff;stroke-width:1.8;stroke-miterlimit:2.4;stroke-dasharray:none;stroke-opacity:1;paint-order:stroke markers fill"
       id="rect5101"
       width="211.55872"
       height="298.76215"
       x="-0.51599681"
       y="0"
       ry="0.72972971" />
  </g>
  <g
     inkscape:label="Layer 1"
     inkscape:groupmode="layer"
     id="layer1">
    <rect
       style="fill:#512d02;stroke:#512d02;stroke-width:1.2;stroke-miterlimit:2.4;paint-order:stroke markers fill"
       id="rect4359"
       width="20"
       height="13.598061"
       x="32.323681"
       y="112.91581"
       ry="0.49614549"
       rx="2.4628379" />
    <path
       style="fill:none;stroke:#512d02;stroke-width:1.8;stroke-miterlimit:2.4;stroke-dasharray:none;paint-order:stroke markers fill"
       d="m 34.736832,114.48577 c 0,0 -1.943567,-9.02728 -0.197036,-12.31115 2.660005,-5.001406 13.012017,-4.12975 15.270388,-0.67327 2.25837,3.45648 -0.295555,13.27295 -0.295555,13.27295"
       id="path4535"
       sodipodi:nodetypes="cszc" />
    <rect
       style="fill:#512d02;stroke:#512d02;stroke-width:1.2;stroke-miterlimit:2.4;paint-order:stroke markers fill"
       id="rect4359-9"
       width="20"
       height="13.598061"
       x="70.577065"
       y="113.11775"
       ry="0.49614549"
       rx="2.4628379" />
    <path
       style="fill:none;stroke:#512d02;stroke-width:1.8;stroke-miterlimit:2.4;stroke-dasharray:none;paint-order:stroke markers fill"
       d="m 73.678414,113.6818 c 0,0 -1.7995,-8.1988 -0.18243,-11.1813 2.46284,-4.542401 11.3178,-3.226618 13.31756,-1.65972 1.99977,1.56689 1.73311,4.5424 1.73311,4.5424"
       id="path4535-7"
       sodipodi:nodetypes="cszc" />
    <rect
       style="fill:#b8b8b8;fill-opacity:1;stroke:#b8b8b8;stroke-width:1.2;stroke-miterlimit:2.4;stroke-opacity:1;paint-order:stroke markers fill"
       id="rect4359-93"
       width="20"
       height="13.598128"
       x="122.57638"
       y="113.39405"
       ry="0.49614799"
       rx="2.4628379" />
    <path
       style="fill:none;stroke:#b8b8b8;stroke-width:1.8;stroke-miterlimit:2.4;stroke-dasharray:none;stroke-opacity:1;paint-order:stroke markers fill"
       d="m 124.98953,114.96397 c 0,0 -1.94357,-9.02728 -0.19704,-12.31115 2.66001,-5.001401 13.01203,-4.129748 15.2704,-0.67327 2.25837,3.45648 -0.29556,13.27295 -0.29556,13.27295"
       id="path4535-1"
       sodipodi:nodetypes="cszc" />
    <rect
       style="fill:#b8b8b8;fill-opacity:1;stroke:#b8b8b8;stroke-width:1.2;stroke-miterlimit:2.4;stroke-opacity:1;paint-order:stroke markers fill"
       id="rect4359-9-1"
       width="20"
       height="13.598128"
       x="160.82976"
       y="113.59592"
       ry="0.49614799"
       rx="2.4628379" />
    <path
       style="fill:none;stroke:#b8b8b8;stroke-width:1.8;stroke-miterlimit:2.4;stroke-dasharray:none;stroke-opacity:1;paint-order:stroke markers fill"
       d="m 163.93112,114.16 c 0,0 -1.7995,-8.1988 -0.18243,-11.18129 2.46284,-4.54241 11.3178,-3.226629 13.31756,-1.65973 1.99977,1.56689 1.73311,4.5424 1.73311,4.5424"
       id="path4535-7-72"
       sodipodi:nodetypes="cszc" />
    <rect
       style="fill:#000000;fill-opacity:1;stroke:#000000;stroke-width:1.2;stroke-miterlimit:2.4;stroke-opacity:1;paint-order:stroke markers fill"
       id="rect4359-1"
       width="20"
       height="13.598166"
       x="35.114918"
       y="175.64587"
       ry="0.49614933"
       rx="2.4628379"
       inkscape:export-filename="ratio-locked.png"
       inkscape:export-xdpi="96"
       inkscape:export-ydpi="96" />
    <path
       style="fill:none;stroke:#000000;stroke-width:1.8;stroke-miterlimit:2.4;stroke-dasharray:none;stroke-opacity:1;paint-order:stroke markers fill"
       d="m 37.528067,177.21596 c 0,0 -1.943567,-9.02728 -0.197036,-12.31115 2.660005,-5.00141 13.012017,-4.12974 15.270388,-0.67327 2.25837,3.45648 -0.295555,13.27296 -0.295555,13.27296"
       id="path4535-9"
       sodipodi:nodetypes="cszc"
       inkscape:export-filename="maze_game\ratio-locked.png"
       inkscape:export-xdpi="96"
       inkscape:export-ydpi="96" />
    <rect
       style="fill:#000000;fill-opacity:1;stroke:#000000;stroke-width:1.2;stroke-miterlimit:2.4;stroke-opacity:1;paint-order:stroke markers fill"
       id="rect4359-9-4"
       width="20"
       height="13.598166"
       x="73.368294"
       y="175.8477"
       ry="0.49614933"
       rx="2.4628379"
       inkscape:export-filename="maze_game\ratio-unlocked.png"
       inkscape:export-xdpi="96"
       inkscape:export-ydpi="96" />
    <path
       style="fill:none;stroke:#000000;stroke-width:1.8;stroke-miterlimit:2.4;stroke-dasharray:none;stroke-opacity:1;paint-order:stroke markers fill"
       d="m 76.469649,176.41199 c 0,0 -1.7995,-8.1988 -0.18243,-11.1813 2.46284,-4.5424 11.3178,-3.22662 13.31756,-1.65972 1.99977,1.56689 1.73311,4.5424 1.73311,4.5424"
       id="path4535-7-3"
       sodipodi:nodetypes="cszc"
       inkscape:export-filename="ratio-unlocked.png"
       inkscape:export-xdpi="96"
       inkscape:export-ydpi="96" />
    <rect
       style="fill:#ffffff;fill-opacity:1;stroke:#ffffff;stroke-width:1.2;stroke-miterlimit:2.4;stroke-opacity:1;paint-order:stroke markers fill"
       id="rect4359-3"
       width="20"
       height="13.598066"
       x="122.31838"
       y="176.28555"
       ry="0.49614573"
       rx="2.4628379" />
    <path
       style="fill:none;stroke:#ffffff;stroke-width:1.8;stroke-miterlimit:2.4;stroke-dasharray:none;stroke-opacity:1;paint-order:stroke markers fill"
       d="m 124.73153,177.85554 c 0,0 -1.94356,-9.02728 -0.19703,-12.31115 2.66,-5.0014 13.01202,-4.12975 15.27039,-0.67327 2.25837,3.45648 -0.29555,13.27296 -0.29555,13.27296"
       id="path4535-3"
       sodipodi:nodetypes="cszc" />
    <rect
       style="fill:#ffffff;fill-opacity:1;stroke:#ffffff;stroke-width:1.2;stroke-miterlimit:2.4;stroke-opacity:1;paint-order:stroke markers fill"
       id="rect4359-9-7"
       width="20"
       height="13.598066"
       x="160.57176"
       y="176.48749"
       ry="0.49614573"
       rx="2.4628379" />
    <path
       style="fill:none;stroke:#ffffff;stroke-width:1.8;stroke-miterlimit:2.4;stroke-dasharray:none;stroke-opacity:1;paint-order:stroke markers fill"
       d="m 163.67312,177.05157 c 0,0 -1.7995,-8.1988 -0.18243,-11.1813 2.46284,-4.5424 11.3178,-3.22662 13.31756,-1.65972 1.99977,1.56689 1.73311,4.5424 1.73311,4.5424"
       id="path4535-7-7"
       sodipodi:nodetypes="cszc" />
  </g>
</svg>
