<?xml version="1.0" encoding="UTF-8" standalone="no"?>
<!-- Created with Inkscape (http://www.inkscape.org/) -->

<svg
   width="210mm"
   height="297mm"
   viewBox="0 0 210 297"
   version="1.1"
   id="svg135"
   inkscape:version="1.2 (dc2aedaf03, 2022-05-15)"
   sodipodi:docname="mouse.svg"
   xmlns:inkscape="http://www.inkscape.org/namespaces/inkscape"
   xmlns:sodipodi="http://sodipodi.sourceforge.net/DTD/sodipodi-0.dtd"
   xmlns="http://www.w3.org/2000/svg"
   xmlns:svg="http://www.w3.org/2000/svg">
  <sodipodi:namedview
     id="namedview137"
     pagecolor="#ffffff"
     bordercolor="#000000"
     borderopacity="0.25"
     inkscape:showpageshadow="2"
     inkscape:pageopacity="0.0"
     inkscape:pagecheckerboard="0"
     inkscape:deskcolor="#d1d1d1"
     inkscape:document-units="mm"
     showgrid="false"
     inkscape:zoom="0.89571167"
     inkscape:cx="367.3057"
     inkscape:cy="173.60497"
     inkscape:window-width="1920"
     inkscape:window-height="1001"
     inkscape:window-x="-9"
     inkscape:window-y="-9"
     inkscape:window-maximized="1"
     inkscape:current-layer="g4296" />
  <defs
     id="defs132" />
  <g
     inkscape:groupmode="layer"
     id="layer3"
     inkscape:label="bg">
    <rect
       style="fill:#c4c4c4;fill-opacity:1;stroke-width:3;stroke-miterlimit:2.4;paint-order:stroke markers fill"
       id="rect1497"
       width="212.5907"
       height="300.82614"
       x="-1.0319936"
       y="-1.0319936"
       ry="0.36486486"
       sodipodi:insensitive="true" />
  </g>
  <g
     inkscape:label="Layer 1"
     inkscape:groupmode="layer"
     id="layer1"
     sodipodi:insensitive="true">
    <path
       style="fill:#ffffff;fill-opacity:1;stroke:#000000;stroke-width:0.5;stroke-miterlimit:2.4;stroke-dasharray:none;stroke-opacity:1;paint-order:stroke markers fill"
       d="m 37.392916,35.780152 c -7.401245,10.590572 -4.103607,49.718203 4.170544,54.787053 8.274151,5.06884 23.090493,4.66773 30.305958,-0.52936 7.215473,-5.19708 9.995798,-45.611939 2.780348,-55.051705 -7.21545,-9.439768 -29.855604,-9.796562 -37.25685,0.794012 z"
       id="path599"
       sodipodi:nodetypes="zzzzz" />
    <path
       style="fill:#818181;fill-opacity:1;stroke-width:3;stroke-miterlimit:2.4;paint-order:stroke markers fill"
       d="m 55.821838,27.857177 -0.07853,28.038025 -22.424364,-0.115164 c 0,0 -0.295474,-14.823609 4.395883,-20.629552 6.219348,-7.696955 18.10701,-7.293309 18.107011,-7.293309 z"
       id="path1442"
       sodipodi:nodetypes="cccsc" />
    <rect
       style="fill:#000000;fill-opacity:1;stroke-width:0.999995;stroke-miterlimit:2.4;stroke-dasharray:none;paint-order:stroke markers fill"
       id="rect1386"
       width="45.721516"
       height="0.36269826"
       x="33.271797"
       y="55.630535"
       ry="0.18134913" />
    <rect
       style="fill:#000000;fill-opacity:1;stroke:none;stroke-width:1;stroke-miterlimit:2.4;stroke-dasharray:none;stroke-opacity:1;paint-order:stroke markers fill"
       id="rect4146"
       width="0.38101262"
       height="27.918337"
       x="55.571739"
       y="27.761923"
       ry="0.061903212" />
    <path
       style="fill:none;fill-opacity:1;stroke:#000000;stroke-width:0.999995;stroke-miterlimit:2.4;stroke-dasharray:none;stroke-opacity:1;paint-order:stroke markers fill"
       d="m 46.231376,13.075741 c 0,0 -17.685148,-0.380197 -27.201834,11.925488 -9.5166846,12.305679 -5.440368,25.604722 -5.440368,25.604722 h 0.777196"
       id="path4202"
       sodipodi:nodetypes="czcc" />
    <path
       style="fill:none;fill-opacity:1;stroke:#000000;stroke-width:1;stroke-miterlimit:2.4;stroke-dasharray:none;stroke-opacity:1;paint-order:stroke markers fill"
       d="m 43.219817,20.230317 c 0,0 -11.668303,-0.258091 -17.94722,8.09548 -6.278915,8.353585 -3.589444,17.381493 -3.589444,17.381493 h 0.512778"
       id="path4202-4"
       sodipodi:nodetypes="czcc" />
    <path
       style="fill:none;fill-opacity:1;stroke:#000000;stroke-width:1;stroke-miterlimit:2.4;stroke-dasharray:none;stroke-opacity:1;paint-order:stroke markers fill"
       d="m 39.773314,27.403008 c 0,0 -5.901898,-0.144708 -9.077811,4.539932 -3.175913,4.684678 -1.815563,9.747503 -1.815563,9.747503 h 0.259366"
       id="path4202-3"
       sodipodi:nodetypes="czcc" />
  </g>
  <g
     inkscape:label="Layer 1 copy"
     inkscape:groupmode="layer"
     id="g4296"
     transform="translate(86.548963,-3.2492785)">
    <path
       style="fill:#ffffff;fill-opacity:1;stroke:#000000;stroke-width:0.5;stroke-miterlimit:2.4;stroke-dasharray:none;stroke-opacity:1;paint-order:stroke markers fill"
       d="M 69.313356,37.257097 C 76.714601,47.847669 73.416963,86.9753 65.142812,92.04415 56.868661,97.11299 42.052319,96.71188 34.836854,91.51479 27.621381,86.31771 24.841056,45.902851 32.056506,36.463085 c 7.21545,-9.439768 29.855604,-9.796562 37.25685,0.794012 z"
       id="path4282"
       sodipodi:nodetypes="zzzzz" />
    <path
       style="fill:#818181;fill-opacity:1;stroke-width:3;stroke-miterlimit:2.4;paint-order:stroke markers fill"
       d="m 50.884434,29.334122 0.07853,28.038025 22.424364,-0.115164 c 0,0 0.295474,-14.823609 -4.395883,-20.629552 -6.219348,-7.696955 -18.10701,-7.293309 -18.107011,-7.293309 z"
       id="path4284"
       sodipodi:nodetypes="cccsc"
       inkscape:export-filename="mouse-right-click.png"
       inkscape:export-xdpi="96"
       inkscape:export-ydpi="96" />
    <rect
       style="fill:#000000;fill-opacity:1;stroke-width:0.999995;stroke-miterlimit:2.4;stroke-dasharray:none;paint-order:stroke markers fill"
       id="rect4286"
       width="45.721516"
       height="0.36269826"
       x="-73.434471"
       y="57.107479"
       ry="0.18134913"
       transform="scale(-1,1)" />
    <rect
       style="fill:#000000;fill-opacity:1;stroke:none;stroke-width:1;stroke-miterlimit:2.4;stroke-dasharray:none;stroke-opacity:1;paint-order:stroke markers fill"
       id="rect4288"
       width="0.38101262"
       height="27.918337"
       x="-51.134533"
       y="29.238867"
       ry="0.061903212"
       transform="scale(-1,1)" />
    <path
       style="fill:none;fill-opacity:1;stroke:#000000;stroke-width:0.999995;stroke-miterlimit:2.4;stroke-dasharray:none;stroke-opacity:1;paint-order:stroke markers fill"
       d="m 60.474896,14.552686 c 0,0 17.685148,-0.380197 27.201834,11.925488 9.516685,12.305679 5.440368,25.604722 5.440368,25.604722 h -0.777196"
       id="path4290"
       sodipodi:nodetypes="czcc" />
    <path
       style="fill:none;fill-opacity:1;stroke:#000000;stroke-width:1;stroke-miterlimit:2.4;stroke-dasharray:none;stroke-opacity:1;paint-order:stroke markers fill"
       d="m 63.486455,21.707262 c 0,0 11.668303,-0.258091 17.94722,8.09548 6.278915,8.353585 3.589444,17.381493 3.589444,17.381493 h -0.512778"
       id="path4292"
       sodipodi:nodetypes="czcc" />
    <path
       style="fill:none;fill-opacity:1;stroke:#000000;stroke-width:1;stroke-miterlimit:2.4;stroke-dasharray:none;stroke-opacity:1;paint-order:stroke markers fill"
       d="m 66.932958,28.879953 c 0,0 5.901898,-0.144708 9.077811,4.539932 3.175913,4.684678 1.815563,9.747503 1.815563,9.747503 h -0.259366"
       id="path4294"
       sodipodi:nodetypes="czcc" />
  </g>
</svg>
